<svg width="696.125px" height="166.4px" xmlns="http://www.w3.org/2000/svg" viewBox="-98.0625 -8.200000000000003 696.125 166.4" style="background: rgba(0, 0, 0, 0);" preserveAspectRatio="xMidYMid"><defs><filter id="editing-extrude-glow"><feFlood flood-color="#333333" result="flood-1"></feFlood><feMorphology operator="erode" radius="1" in="SourceAlpha" result="erode"></feMorphology><feComposite operator="in" in="flood-1" in2="erode" result="comp1"></feComposite><feConvolveMatrix order="3,3" divisor="1" in="comp1" result="convolve" kernelMatrix="0 0 0 1 1 1 0 0 0"></feConvolveMatrix><feOffset dx="-3" dy="0" in="convolve" result="extrude"></feOffset><feComposite operator="in" in="flood-1" in2="extrude" result="comp-extrude"></feComposite><feFlood flood-color="#000000" result="flood-2"></feFlood><feComposite operator="in" in="flood-2" in2="SourceAlpha" result="comp2"></feComposite><feMorphology operator="dilate" radius="1" in="comp2" result="dilate"></feMorphology><feOffset dx="-4.5" dy="0" in="dilate" result="offset"></feOffset><feGaussianBlur in="offset" stdDeviation="5.8" result="blur"></feGaussianBlur><feComponentTransfer in="blur" result="shadow"><feFuncA type="linear" slope="0.8" intercept="-0.2"></feFuncA></feComponentTransfer><feMerge><feMergeNode in="shadow"></feMergeNode><feMergeNode in="comp-extrude"></feMergeNode><feMergeNode in="SourceGraphic"></feMergeNode></feMerge></filter></defs><g filter="url(#editing-extrude-glow)"><g transform="translate(5.686742305755615, 109.5)"><path d="M41.95 1.84L41.95 1.84L41.95 1.84Q30.18 1.84 29.07-14.90L29.07-14.90L13.25-14.90L13.25-14.90Q11.41-10.67 10.12-6.99L10.12-6.99L7.73 0L-5.15 0L23.83-60.72L43.61-60.72L47.47-16.01L47.47-16.01Q48.39-6.35 52.07-3.50L52.07-3.50L52.07-3.50Q49.40 1.84 41.95 1.84ZM21.16-33.30L16.10-21.62L28.80-21.62L27.69-45.26L27.69-47.75L21.16-33.30ZM96.32 1.84L96.32 1.84L96.32 1.84Q85.19 1.84 85.19-6.81L85.19-6.81L85.19-6.81Q85.28-9.20 86.02-13.25L86.02-13.25L87.68-21.71L87.68-21.71Q90.16-33.67 90.16-36.34L90.16-36.34L90.16-36.34Q90.16-41.68 87.03-41.68L87.03-41.68L87.03-41.68Q81.79-41.68 79.03-27.97L79.03-27.97L73.60 0L55.11 1.84L64.68-47.01L79.76-48.76L78.29-39.74L78.29-39.74Q82.62-48.76 95.86-48.76L95.86-48.76L95.86-48.76Q102.30-48.76 105.02-46.05L105.02-46.05L105.02-46.05Q107.73-43.33 107.73-37.26L107.73-37.26L107.73-37.26Q107.73-31.56 104.79-18.22L104.79-18.22L104.79-18.22Q103.41-12.24 103.41-9.98L103.41-9.98L103.41-9.98Q103.41-7.73 104.65-6.44L104.65-6.44L104.65-6.44Q105.89-5.15 107.73-4.97L107.73-4.97L107.73-4.97Q106.81-1.84 103.64 0L103.64 0L103.64 0Q100.46 1.84 96.32 1.84ZM137.17-5.06L137.17-5.06L137.17-5.06Q134.32 1.84 125.21 1.84L125.21 1.84L125.21 1.84Q120.52 1.84 117.58-1.38L117.58-1.38L117.58-1.38Q115.09-4.23 115.09-7.08L115.09-7.08L115.09-7.08Q115.09-14.54 118.50-29.07L118.50-29.07L121.90-46.92L140.58-48.76L134.96-19.69L134.96-19.69Q133.40-12.88 133.40-10.49L133.40-10.49L133.40-10.49Q133.40-5.24 137.17-5.06ZM123.56-59.71L123.56-59.71L123.56-59.71Q123.56-63.30 126.55-65.23L126.55-65.23L126.55-65.23Q129.54-67.16 133.86-67.16L133.86-67.16L133.86-67.16Q138.18-67.16 140.81-65.23L140.81-65.23L140.81-65.23Q143.43-63.30 143.43-59.71L143.43-59.71L143.43-59.71Q143.43-56.12 140.53-54.28L140.53-54.28L140.53-54.28Q137.63-52.44 133.31-52.44L133.31-52.44L133.31-52.44Q128.98-52.44 126.27-54.28L126.27-54.28L126.27-54.28Q123.56-56.12 123.56-59.71ZM146.46-9.20L146.46-9.20L146.46-9.20Q146.46-11.68 147.75-17.94L147.75-17.94L152.63-42.78L147.20-42.78L147.57-45.54L147.57-45.54Q158.61-48.85 169.28-56.95L169.28-56.95L173.70-56.95L171.49-46.92L178.66-46.92L177.84-42.78L170.75-42.78L166.06-17.94L166.06-17.94Q164.86-12.24 164.86-10.30L164.86-10.30L164.86-10.30Q164.86-5.89 168.73-4.97L168.73-4.97L168.73-4.97Q167.81-1.84 164.50 0L164.50 0L164.50 0Q161.18 1.84 156.49 1.84L156.49 1.84L156.49 1.84Q151.80 1.84 149.13-1.10L149.13-1.10L149.13-1.10Q146.46-4.05 146.46-9.20ZM181.84-2.76L181.84-2.76L181.84-2.76Q179.68-5.15 178.71-8.92L178.71-8.92L178.71-8.92Q177.74-12.70 177.74-18.86L177.74-18.86L177.74-18.86Q177.74-25.02 179.86-30.64L179.86-30.64L179.86-30.64Q181.98-36.25 185.84-40.30L185.84-40.30L185.84-40.30Q193.75-48.76 206.82-48.76L206.82-48.76L206.82-48.76Q211.51-48.76 214.91-47.20L214.91-47.20L230.64-48.76L223.84-12.88L223.84-12.88Q223.56-11.78 223.56-9.75L223.56-9.75L223.56-9.75Q223.56-7.73 224.80-6.44L224.80-6.44L224.80-6.44Q226.04-5.15 227.88-4.97L227.88-4.97L227.88-4.97Q226.96-1.84 223.61 0L223.61 0L223.61 0Q220.25 1.84 216.48 1.84L216.48 1.84L216.48 1.84Q212.70 1.84 210.17 0.41L210.17 0.41L210.17 0.41Q207.64-1.01 206.91-3.40L206.91-3.40L206.91-3.40Q205.44-1.10 202.31 0.37L202.31 0.37L202.31 0.37Q199.18 1.84 194.99 1.84L194.99 1.84L194.99 1.84Q190.81 1.84 187.40 0.74L187.40 0.74L187.40 0.74Q184-0.37 181.84-2.76ZM201.25-40.11L201.25-40.11L201.25-40.11Q200.19-38.46 199.27-35.65L199.27-35.65L199.27-35.65Q198.35-32.84 196.83-25.35L196.83-25.35L196.83-25.35Q195.32-17.85 195.32-12.51L195.32-12.51L195.32-12.51Q195.32-7.18 196.14-5.61L196.14-5.61L196.14-5.61Q196.97-4.05 198.44-4.05L198.44-4.05L198.44-4.05Q201.39-4.05 203.55-6.85L203.55-6.85L203.55-6.85Q205.71-9.66 206.54-14.63L206.54-14.63L211.42-41.58L211.42-41.58Q209.48-43.24 207.23-43.24L207.23-43.24L207.23-43.24Q204.98-43.24 203.64-42.50L203.64-42.50L203.64-42.50Q202.31-41.77 201.25-40.11ZM273.33 0L253.74 0L264.22-55.94L265.24-60.72L284.92-60.72L273.33 0ZM310.68-5.43L310.68-5.43L310.68-5.43Q308.20 1.84 298.63 1.84L298.63 1.84L298.63 1.84Q291.55 1.84 286.67-6.62L286.67-6.62L286.67-6.62Q281.70-15.09 280.78-28.89L280.78-28.89L280.78-28.89Q290.90-47.38 297.90-55.02L297.90-55.02L297.90-55.02Q304.61-62.28 311.60-62.28L311.60-62.28L311.60-62.28Q315.38-62.28 318.09-60.26L318.09-60.26L318.09-60.26Q320.80-58.24 321.45-55.02L321.45-55.02L321.45-55.02Q318.32-53.73 316.85-52.72L316.85-52.72L316.85-52.72Q313.17-49.96 308.20-43.79L308.20-43.79L299.83-33.76L299.83-33.76Q297.80-31.37 296.98-30.27L296.98-30.27L296.98-30.27Q298.36-22.54 302.50-14.90L302.50-14.90L302.50-14.90Q306.45-7.64 310.68-5.43ZM348.04-3.86L348.04-3.86L348.04-3.86Q343.62 1.84 332.67 1.84L332.67 1.84L332.67 1.84Q326.97 1.84 322.83-1.61L322.83-1.61L322.83-1.61Q318.69-5.06 318.69-10.03L318.69-10.03L318.69-10.03Q318.69-12.79 318.96-14.17L318.96-14.17L325.13-46.92L343.80-48.76L337.09-13.25L337.09-13.25Q336.72-11.22 336.72-10.03L336.72-10.03L336.72-10.03Q336.72-4.69 339.94-4.69L339.94-4.69L339.94-4.69Q343.53-4.69 346.10-9.57L346.10-9.57L346.10-9.57Q346.93-11.13 347.30-13.16L347.30-13.16L353.83-46.92L371.96-48.76L365.15-12.88L365.15-12.88Q364.87-11.50 364.87-10.03L364.87-10.03L364.87-10.03Q364.87-8.56 365.70-6.95L365.70-6.95L365.70-6.95Q366.53-5.34 369.20-4.97L369.20-4.97L369.20-4.97Q368.64-2.76 366.71-1.29L366.71-1.29L366.71-1.29Q362.66 1.84 358.29 1.84L358.29 1.84L358.29 1.84Q353.92 1.84 351.35 0.28L351.35 0.28L351.35 0.28Q348.77-1.29 348.04-3.86ZM423.20-10.21L423.20-10.21L423.20-10.21Q423.20-6.16 427.34-4.97L427.34-4.97L427.34-4.97Q426.33-1.56 422.37 0.28L422.37 0.28L422.37 0.28Q419.06 1.84 415.43 1.84L415.43 1.84L415.43 1.84Q411.79 1.84 409.91 0.87L409.91 0.87L409.91 0.87Q408.02-0.09 407.01-1.66L407.01-1.66L407.01-1.66Q405.35-4.05 405.35-8.56L405.35-8.56L405.35-8.56Q405.35-11.22 406.82-18.58L406.82-18.58L408.11-25.58L408.11-25.58Q409.68-33.58 409.68-36.52L409.68-36.52L409.68-36.52Q409.68-41.68 406.82-41.68L406.82-41.68L406.82-41.68Q403.24-41.68 400.94-36.43L400.94-36.43L400.94-36.43Q400.02-34.41 399.37-31.37L399.37-31.37L393.12 0L374.62 1.84L387.60-64.40L406.09-66.24L405.35-62.56L405.35-62.56Q402.78-48.39 400.57-43.61L400.57-43.61L400.57-43.61Q405.72-48.76 415.20-48.76L415.20-48.76L415.20-48.76Q425.22-48.76 427.06-42.14L427.06-42.14L427.06-42.14Q427.71-40.02 427.71-38.18L427.71-38.18L427.71-38.18Q427.71-36.34 427.57-34.91L427.57-34.91L427.57-34.91Q427.43-33.49 426.97-30.91L426.97-30.91L425.78-24.29L423.66-13.89L423.66-13.89Q423.20-11.78 423.20-10.21ZM438.79-2.76L438.79-2.76L438.79-2.76Q436.63-5.15 435.67-8.92L435.67-8.92L435.67-8.92Q434.70-12.70 434.70-18.86L434.70-18.86L434.70-18.86Q434.70-25.02 436.82-30.64L436.82-30.64L436.82-30.64Q438.93-36.25 442.80-40.30L442.80-40.30L442.80-40.30Q450.71-48.76 463.77-48.76L463.77-48.76L463.77-48.76Q468.46-48.76 471.87-47.20L471.87-47.20L487.60-48.76L480.79-12.88L480.79-12.88Q480.52-11.78 480.52-9.75L480.52-9.75L480.52-9.75Q480.52-7.73 481.76-6.44L481.76-6.44L481.76-6.44Q483-5.15 484.84-4.97L484.84-4.97L484.84-4.97Q483.92-1.84 480.56 0L480.56 0L480.56 0Q477.20 1.84 473.43 1.84L473.43 1.84L473.43 1.84Q469.66 1.84 467.13 0.41L467.13 0.41L467.13 0.41Q464.60-1.01 463.86-3.40L463.86-3.40L463.86-3.40Q462.39-1.10 459.26 0.37L459.26 0.37L459.26 0.37Q456.14 1.84 451.95 1.84L451.95 1.84L451.95 1.84Q447.76 1.84 444.36 0.74L444.36 0.74L444.36 0.74Q440.96-0.37 438.79-2.76ZM458.21-40.11L458.21-40.11L458.21-40.11Q457.15-38.46 456.23-35.65L456.23-35.65L456.23-35.65Q455.31-32.84 453.79-25.35L453.79-25.35L453.79-25.35Q452.27-17.85 452.27-12.51L452.27-12.51L452.27-12.51Q452.27-7.18 453.10-5.61L453.10-5.61L453.10-5.61Q453.93-4.05 455.40-4.05L455.40-4.05L455.40-4.05Q458.34-4.05 460.51-6.85L460.51-6.85L460.51-6.85Q462.67-9.66 463.50-14.63L463.50-14.63L468.37-41.58L468.37-41.58Q466.44-43.24 464.19-43.24L464.19-43.24L464.19-43.24Q461.93-43.24 460.60-42.50L460.60-42.50L460.60-42.50Q459.26-41.77 458.21-40.11Z" fill="#ffe11f"></path></g></g><style>text {
  font-size: 64px;
  font-family: Arial Black;
  dominant-baseline: central;
  text-anchor: middle;
}</style></svg>