<svg width="530.4687866210937px" height="122px" xmlns="http://www.w3.org/2000/svg" viewBox="-15.234393310546864 14 530.4687866210937 122" style="background: rgba(0, 0, 0, 0);" preserveAspectRatio="xMidYMid"><defs><filter id="editing-extrude-glow"><feFlood flood-color="#333333" result="flood-1"></feFlood><feMorphology operator="erode" radius="1" in="SourceAlpha" result="erode"></feMorphology><feComposite operator="in" in="flood-1" in2="erode" result="comp1"></feComposite><feConvolveMatrix order="3,3" divisor="1" in="comp1" result="convolve" kernelMatrix="0 0 0 1 1 1 0 0 0"></feConvolveMatrix><feOffset dx="-3" dy="0" in="convolve" result="extrude"></feOffset><feComposite operator="in" in="flood-1" in2="extrude" result="comp-extrude"></feComposite><feFlood flood-color="#000000" result="flood-2"></feFlood><feComposite operator="in" in="flood-2" in2="SourceAlpha" result="comp2"></feComposite><feMorphology operator="dilate" radius="1" in="comp2" result="dilate"></feMorphology><feOffset dx="-4.5" dy="0" in="dilate" result="offset"></feOffset><feGaussianBlur in="offset" stdDeviation="5.8" result="blur"></feGaussianBlur><feComponentTransfer in="blur" result="shadow"><feFuncA type="linear" slope="0.8" intercept="-0.2"></feFuncA></feComponentTransfer><feMerge><feMergeNode in="shadow"></feMergeNode><feMergeNode in="comp-extrude"></feMergeNode><feMergeNode in="SourceGraphic"></feMergeNode></feMerge></filter></defs><g filter="url(#editing-extrude-glow)"><g transform="translate(65.29411125183105, 98.68000030517578)"><path d="M29.18 1.28L29.18 1.28L29.18 1.28Q20.99 1.28 20.22-10.37L20.22-10.37L9.22-10.37L9.22-10.37Q7.94-7.42 7.04-4.86L7.04-4.86L5.38 0L-3.58 0L16.58-42.24L30.34-42.24L33.02-11.14L33.02-11.14Q33.66-4.42 36.22-2.43L36.22-2.43L36.22-2.43Q34.37 1.28 29.18 1.28ZM14.72-23.17L11.20-15.04L20.03-15.04L19.26-31.49L19.26-33.22L14.72-23.17ZM67.01 1.28L67.01 1.28L67.01 1.28Q59.26 1.28 59.26-4.74L59.26-4.74L59.26-4.74Q59.33-6.40 59.84-9.22L59.84-9.22L60.99-15.10L60.99-15.10Q62.72-23.42 62.72-25.28L62.72-25.28L62.72-25.28Q62.72-28.99 60.54-28.99L60.54-28.99L60.54-28.99Q56.90-28.99 54.98-19.46L54.98-19.46L51.20 0L38.34 1.28L44.99-32.70L55.49-33.92L54.46-27.65L54.46-27.65Q57.47-33.92 66.69-33.92L66.69-33.92L66.69-33.92Q71.17-33.92 73.06-32.03L73.06-32.03L73.06-32.03Q74.94-30.14 74.94-25.92L74.94-25.92L74.94-25.92Q74.94-21.95 72.90-12.67L72.90-12.67L72.90-12.67Q71.94-8.51 71.94-6.94L71.94-6.94L71.94-6.94Q71.94-5.38 72.80-4.48L72.80-4.48L72.80-4.48Q73.66-3.58 74.94-3.46L74.94-3.46L74.94-3.46Q74.30-1.28 72.10 0L72.10 0L72.10 0Q69.89 1.28 67.01 1.28ZM107.14 1.28L107.14 1.28L107.14 1.28Q99.39 1.28 99.39-4.74L99.39-4.74L99.39-4.74Q99.46-6.40 99.97-9.22L99.97-9.22L101.12-15.10L101.12-15.10Q102.85-23.42 102.85-25.28L102.85-25.28L102.85-25.28Q102.85-28.99 100.67-28.99L100.67-28.99L100.67-28.99Q97.02-28.99 95.10-19.46L95.10-19.46L91.33 0L78.46 1.28L85.12-32.70L95.62-33.92L94.59-27.65L94.59-27.65Q97.60-33.92 106.82-33.92L106.82-33.92L106.82-33.92Q111.30-33.92 113.18-32.03L113.18-32.03L113.18-32.03Q115.07-30.14 115.07-25.92L115.07-25.92L115.07-25.92Q115.07-21.95 113.02-12.67L113.02-12.67L113.02-12.67Q112.06-8.51 112.06-6.94L112.06-6.94L112.06-6.94Q112.06-5.38 112.93-4.48L112.93-4.48L112.93-4.48Q113.79-3.58 115.07-3.46L115.07-3.46L115.07-3.46Q114.43-1.28 112.22 0L112.22 0L112.22 0Q110.02 1.28 107.14 1.28ZM122.98-1.92L122.98-1.92L122.98-1.92Q121.47-3.58 120.80-6.21L120.80-6.21L120.80-6.21Q120.13-8.83 120.13-13.12L120.13-13.12L120.13-13.12Q120.13-17.41 121.60-21.31L121.60-21.31L121.60-21.31Q123.07-25.22 125.76-28.03L125.76-28.03L125.76-28.03Q131.26-33.92 140.35-33.92L140.35-33.92L140.35-33.92Q143.62-33.92 145.98-32.83L145.98-32.83L156.93-33.92L152.19-8.96L152.19-8.96Q152-8.19 152-6.78L152-6.78L152-6.78Q152-5.38 152.86-4.48L152.86-4.48L152.86-4.48Q153.73-3.58 155.01-3.46L155.01-3.46L155.01-3.46Q154.37-1.28 152.03 0L152.03 0L152.03 0Q149.70 1.28 147.07 1.28L147.07 1.28L147.07 1.28Q144.45 1.28 142.69 0.29L142.69 0.29L142.69 0.29Q140.93-0.70 140.42-2.37L140.42-2.37L140.42-2.37Q139.39-0.77 137.22 0.26L137.22 0.26L137.22 0.26Q135.04 1.28 132.13 1.28L132.13 1.28L132.13 1.28Q129.22 1.28 126.85 0.51L126.85 0.51L126.85 0.51Q124.48-0.26 122.98-1.92ZM136.48-27.90L136.48-27.90L136.48-27.90Q135.74-26.75 135.10-24.80L135.10-24.80L135.10-24.80Q134.46-22.85 133.41-17.63L133.41-17.63L133.41-17.63Q132.35-12.42 132.35-8.70L132.35-8.70L132.35-8.70Q132.35-4.99 132.93-3.90L132.93-3.90L132.93-3.90Q133.50-2.82 134.53-2.82L134.53-2.82L134.53-2.82Q136.58-2.82 138.08-4.77L138.08-4.77L138.08-4.77Q139.58-6.72 140.16-10.18L140.16-10.18L143.55-28.93L143.55-28.93Q142.21-30.08 140.64-30.08L140.64-30.08L140.64-30.08Q139.07-30.08 138.14-29.57L138.14-29.57L138.14-29.57Q137.22-29.06 136.48-27.90ZM186.62 0L172.99 0L180.29-38.91L180.99-42.24L194.69-42.24L186.62 0ZM212.61-3.78L212.61-3.78L212.61-3.78Q210.88 1.28 204.22 1.28L204.22 1.28L204.22 1.28Q199.30 1.28 195.90-4.61L195.90-4.61L195.90-4.61Q192.45-10.50 191.81-20.10L191.81-20.10L191.81-20.10Q198.85-32.96 203.71-38.27L203.71-38.27L203.71-38.27Q208.38-43.33 213.25-43.33L213.25-43.33L213.25-43.33Q215.87-43.33 217.76-41.92L217.76-41.92L217.76-41.92Q219.65-40.51 220.10-38.27L220.10-38.27L220.10-38.27Q217.92-37.38 216.90-36.67L216.90-36.67L216.90-36.67Q214.34-34.75 210.88-30.46L210.88-30.46L205.06-23.49L205.06-23.49Q203.65-21.82 203.07-21.06L203.07-21.06L203.07-21.06Q204.03-15.68 206.91-10.37L206.91-10.37L206.91-10.37Q209.66-5.31 212.61-3.78ZM238.59-2.69L238.59-2.69L238.59-2.69Q235.52 1.28 227.90 1.28L227.90 1.28L227.90 1.28Q223.94 1.28 221.06-1.12L221.06-1.12L221.06-1.12Q218.18-3.52 218.18-6.98L218.18-6.98L218.18-6.98Q218.18-8.90 218.37-9.86L218.37-9.86L222.66-32.64L235.65-33.92L230.98-9.22L230.98-9.22Q230.72-7.81 230.72-6.98L230.72-6.98L230.72-6.98Q230.72-3.26 232.96-3.26L232.96-3.26L232.96-3.26Q235.46-3.26 237.25-6.66L237.25-6.66L237.25-6.66Q237.82-7.74 238.08-9.15L238.08-9.15L242.62-32.64L255.23-33.92L250.50-8.96L250.50-8.96Q250.30-8 250.30-6.98L250.30-6.98L250.30-6.98Q250.30-5.95 250.88-4.83L250.88-4.83L250.88-4.83Q251.46-3.71 253.31-3.46L253.31-3.46L253.31-3.46Q252.93-1.92 251.58-0.90L251.58-0.90L251.58-0.90Q248.77 1.28 245.73 1.28L245.73 1.28L245.73 1.28Q242.69 1.28 240.90 0.19L240.90 0.19L240.90 0.19Q239.10-0.90 238.59-2.69ZM289.86-26.62L289.86-26.62L289.86-26.62Q289.86-23.94 287.62-22.27L287.62-22.27L287.62-22.27Q285.38-20.61 281.73-20.61L281.73-20.61L281.73-20.61Q280.19-20.61 279.30-21.06L279.30-21.06L279.30-21.06Q280-22.72 280.22-24.80L280.22-24.80L280.22-24.80Q280.45-26.88 280.45-27.46L280.45-27.46L280.45-27.46Q280.45-30.14 278.59-30.14L278.59-30.14L278.59-30.14Q277.31-30.14 275.87-28.54L275.87-28.54L275.87-28.54Q274.43-26.94 273.22-24.45L273.22-24.45L273.22-24.45Q270.53-18.69 270.53-12.86L270.53-12.86L270.53-12.86Q270.53-9.66 271.74-8.22L271.74-8.22L271.74-8.22Q272.96-6.78 275.65-6.78L275.65-6.78L275.65-6.78Q279.36-6.78 282.30-9.86L282.30-9.86L282.30-9.86Q283.14-10.82 283.58-11.90L283.58-11.90L283.58-11.90Q286.02-10.62 286.02-7.10L286.02-7.10L286.02-7.10Q286.02-3.52 282.05-1.15L282.05-1.15L282.05-1.15Q277.95 1.28 271.42 1.28L271.42 1.28L271.42 1.28Q258.43 1.28 258.43-12.48L258.43-12.48L258.43-12.48Q258.43-22.53 264.13-28.29L264.13-28.29L264.13-28.29Q269.63-33.92 279.74-33.92L279.74-33.92L279.74-33.92Q289.86-33.92 289.86-26.62ZM323.78-7.10L323.78-7.10L323.78-7.10Q323.78-4.29 326.66-3.46L326.66-3.46L326.66-3.46Q325.95-1.09 323.20 0.19L323.20 0.19L323.20 0.19Q320.90 1.28 318.37 1.28L318.37 1.28L318.37 1.28Q315.84 1.28 314.53 0.61L314.53 0.61L314.53 0.61Q313.22-0.06 312.51-1.15L312.51-1.15L312.51-1.15Q311.36-2.82 311.36-5.95L311.36-5.95L311.36-5.95Q311.36-7.81 312.38-12.93L312.38-12.93L313.28-17.79L313.28-17.79Q314.37-23.36 314.37-25.41L314.37-25.41L314.37-25.41Q314.37-28.99 312.38-28.99L312.38-28.99L312.38-28.99Q309.89-28.99 308.29-25.34L308.29-25.34L308.29-25.34Q307.65-23.94 307.20-21.82L307.20-21.82L302.85 0L289.98 1.28L299.01-44.80L311.87-46.08L311.36-43.52L311.36-43.52Q309.57-33.66 308.03-30.34L308.03-30.34L308.03-30.34Q311.62-33.92 318.21-33.92L318.21-33.92L318.21-33.92Q325.18-33.92 326.46-29.31L326.46-29.31L326.46-29.31Q326.91-27.84 326.91-26.56L326.91-26.56L326.91-26.56Q326.91-25.28 326.82-24.29L326.82-24.29L326.82-24.29Q326.72-23.30 326.40-21.50L326.40-21.50L325.57-16.90L324.10-9.66L324.10-9.66Q323.78-8.19 323.78-7.10ZM334.62-1.92L334.62-1.92L334.62-1.92Q333.12-3.58 332.45-6.21L332.45-6.21L332.45-6.21Q331.78-8.83 331.78-13.12L331.78-13.12L331.78-13.12Q331.78-17.41 333.25-21.31L333.25-21.31L333.25-21.31Q334.72-25.22 337.41-28.03L337.41-28.03L337.41-28.03Q342.91-33.92 352.00-33.92L352.00-33.92L352.00-33.92Q355.26-33.92 357.63-32.83L357.63-32.83L368.58-33.92L363.84-8.96L363.84-8.96Q363.65-8.19 363.65-6.78L363.65-6.78L363.65-6.78Q363.65-5.38 364.51-4.48L364.51-4.48L364.51-4.48Q365.38-3.58 366.66-3.46L366.66-3.46L366.66-3.46Q366.02-1.28 363.68 0L363.68 0L363.68 0Q361.34 1.28 358.72 1.28L358.72 1.28L358.72 1.28Q356.10 1.28 354.34 0.29L354.34 0.29L354.34 0.29Q352.58-0.70 352.06-2.37L352.06-2.37L352.06-2.37Q351.04-0.77 348.86 0.26L348.86 0.26L348.86 0.26Q346.69 1.28 343.78 1.28L343.78 1.28L343.78 1.28Q340.86 1.28 338.50 0.51L338.50 0.51L338.50 0.51Q336.13-0.26 334.62-1.92ZM348.13-27.90L348.13-27.90L348.13-27.90Q347.39-26.75 346.75-24.80L346.75-24.80L346.75-24.80Q346.11-22.85 345.06-17.63L345.06-17.63L345.06-17.63Q344.00-12.42 344.00-8.70L344.00-8.70L344.00-8.70Q344.00-4.99 344.58-3.90L344.58-3.90L344.58-3.90Q345.15-2.82 346.18-2.82L346.18-2.82L346.18-2.82Q348.22-2.82 349.73-4.77L349.73-4.77L349.73-4.77Q351.23-6.72 351.81-10.18L351.81-10.18L355.20-28.93L355.20-28.93Q353.86-30.08 352.29-30.08L352.29-30.08L352.29-30.08Q350.72-30.08 349.79-29.57L349.79-29.57L349.79-29.57Q348.86-29.06 348.13-27.90Z" fill="#ffe11f"></path></g></g><style>text {
  font-size: 64px;
  font-family: Arial Black;
  dominant-baseline: central;
  text-anchor: middle;
}</style></svg>